<?xml version="1.0" encoding="UTF-8"?>
<svg id="Ebene_2" data-name="Ebene 2" xmlns="http://www.w3.org/2000/svg" viewBox="0 0 224.82 217.33">
  <defs>
    <style>
      .cls-1 {
        fill: #300;
      }

      .cls-1, .cls-2 {
        stroke-width: 0px;
      }

      .cls-2 {
        fill: #fe9900;
      }
    </style>
  </defs>
  <g id="Ebene_1-2" data-name="Ebene 1">
    <g>
      <path class="cls-1" d="M112.53,0c24.19,0,48.38-.01,72.58,0,22.37.01,39.7,17.36,39.71,39.76.02,45.97.02,91.93,0,137.9,0,22.23-17.39,39.64-39.58,39.65-48.54.02-97.08.02-145.62,0C17.4,217.3.02,199.89.01,177.67,0,131.62,0,85.58.01,39.54.02,17.46,17.44.03,39.48.01c24.35-.02,48.7,0,73.04,0ZM96.37,59.95c-3.36,0-6.71.05-10.07-.03-1.44-.03-1.95.35-2.16,1.91-.42,3.22-.91,6.5-1.93,9.57-9.66,28.92-19.43,57.8-29.17,86.7-.97,2.88-.88,3,2.19,3.01,4.29,0,8.59-.07,12.88.03,1.74.04,2.64-.46,3.22-2.21,2.44-7.38,5.1-14.7,7.57-22.07.5-1.51,1.15-2.03,2.78-2.02,9.75.09,19.51.09,29.26,0,1.67-.01,2.42.48,2.97,2.06,2.56,7.35,5.27,14.64,7.87,21.97.57,1.61,1.39,2.33,3.22,2.28,4.91-.13,9.83-.04,14.75-.05,2.92,0,2.99-.11,2.04-2.86-4.03-11.69-8.06-23.38-12.08-35.08-7.01-20.38-14.03-40.75-20.98-61.15-.55-1.62-1.3-2.19-2.99-2.11-3.12.14-6.24.04-9.36.04ZM151.75,123.68c0,11.62.03,23.24-.03,34.85-.01,1.88.5,2.67,2.51,2.62,4.6-.11,9.2-.09,13.8,0,1.76.03,2.5-.42,2.49-2.35-.05-23.39-.06-46.78,0-70.18,0-2.04-.76-2.51-2.61-2.47-4.52.1-9.05.13-13.57-.01-2.09-.07-2.65.67-2.64,2.69.08,11.62.04,23.24.04,34.85ZM161.39,56.21c-6.91-.01-11.51,4.52-11.51,11.34,0,6.66,4.46,11.13,11.13,11.14,6.78,0,11.32-4.37,11.35-10.94.03-6.97-4.31-11.53-10.97-11.54Z"/>
      <path class="cls-2" d="M96.37,59.95c3.12,0,6.25.1,9.36-.04,1.69-.07,2.44.49,2.99,2.11,6.95,20.4,13.97,40.77,20.98,61.15,4.02,11.69,8.05,23.39,12.08,35.08.95,2.75.88,2.86-2.04,2.86-4.92,0-9.83-.09-14.75.05-1.83.05-2.65-.68-3.22-2.28-2.59-7.33-5.31-14.63-7.87-21.97-.55-1.58-1.3-2.07-2.97-2.06-9.75.09-19.51.09-29.26,0-1.63-.01-2.28.51-2.78,2.02-2.46,7.38-5.12,14.69-7.57,22.07-.58,1.76-1.48,2.26-3.22,2.21-4.29-.1-8.58-.03-12.88-.03-3.07,0-3.16-.13-2.19-3.01,9.74-28.89,19.51-57.78,29.17-86.7,1.02-3.07,1.51-6.35,1.93-9.57.2-1.56.71-1.94,2.16-1.91,3.35.08,6.71.03,10.07.03ZM96.28,75.87c-.24.41-.41.59-.47.81-4.01,13.31-7.98,26.64-12.05,39.93-.5,1.63.36,1.42,1.32,1.42,7.56,0,15.12,0,22.68,0,.5,0,.99-.09,1.58-.14-4.37-14.05-8.68-27.92-13.06-42Z"/>
      <path class="cls-2" d="M151.75,123.68c0-11.62.04-23.24-.04-34.85-.01-2.02.54-2.75,2.64-2.69,4.52.14,9.04.11,13.57.01,1.86-.04,2.62.43,2.61,2.47-.06,23.39-.06,46.78,0,70.18,0,1.92-.73,2.38-2.49,2.35-4.6-.09-9.2-.11-13.8,0-2,.05-2.52-.74-2.51-2.62.06-11.62.03-23.24.03-34.85Z"/>
      <path class="cls-2" d="M161.39,56.21c6.66.01,11,4.57,10.97,11.54-.02,6.56-4.57,10.94-11.35,10.94-6.67,0-11.14-4.48-11.13-11.14,0-6.82,4.6-11.35,11.51-11.34Z"/>
      <path class="cls-1" d="M96.28,75.87c4.38,14.08,8.69,27.95,13.06,42-.58.06-1.08.14-1.58.14-7.56,0-15.12,0-22.68,0-.96,0-1.82.21-1.32-1.42,4.06-13.3,8.04-26.62,12.05-39.93.06-.21.23-.4.47-.81Z"/>
    </g>
  </g>
</svg>