<?xml version="1.0" encoding="UTF-8"?>
<svg id="Ebene_2" data-name="Ebene 2" xmlns="http://www.w3.org/2000/svg" viewBox="0 0 166.6 222.68">
  <defs>
    <style>
      .cls-1 {
        fill: #000;
      }

      .cls-1, .cls-2, .cls-3, .cls-4, .cls-5, .cls-6 {
        stroke-width: 0px;
      }

      .cls-2 {
        fill: #f2661a;
      }

      .cls-3 {
        fill: #f26518;
      }

      .cls-4 {
        fill: #e54c18;
      }

      .cls-5 {
        fill: #ec8b6b;
      }

      .cls-6 {
        fill: #ec8a69;
      }
    </style>
  </defs>
  <g id="Ebene_1-2" data-name="Ebene 1">
    <g>
      <path class="cls-4" d="M12.88,198.41c-.5-6.49-.96-12.98-1.51-19.47-.96-11.34-1.98-22.67-2.96-34-1-11.48-1.99-22.97-2.98-34.45-.96-11.11-1.91-22.22-2.87-33.34C1.74,67.52.96,57.9.04,48.29c-.16-1.69.11-2.17,1.88-2.17,54.24.04,108.48.05,162.72,0,1.77,0,2.07.5,1.92,2.17-1.23,13.42-2.35,26.84-3.51,40.27-1.28,14.77-2.6,29.53-3.87,44.29-1.12,12.98-2.19,25.96-3.31,38.93-.67,7.83-1.39,15.66-2.07,23.49-.09,1.04-.1,2.09-.15,3.14-7.14,5.61-14.86,10.28-23.13,14-12.78,5.76-26.16,9.21-40.2,9.9-1.84-.06-3.7-.45-5.48.38h-3.6c-1.93-.8-3.93-.44-5.92-.38-3.9.01-7.74-.65-11.56-1.29-15.27-2.57-29.44-8.06-42.5-16.35-2.94-1.87-5.97-3.66-8.38-6.25ZM83.48,198.01c0,6.29.05,12.58-.03,18.87-.02,1.67.24,2.39,2.07,1.65,1.3-.53,2.7-.84,4.07-1.22,15.64-4.38,31.29-8.75,46.93-13.14.86-.24,1.72-.58,1.81-1.72.45-5.79.91-11.57,1.36-17.35.33-4.23.61-8.46.98-12.69.54-6.22,1.17-12.43,1.71-18.65.37-4.23.61-8.46.96-12.69.56-6.67,1.17-13.33,1.74-20,.33-3.85.63-7.71.96-11.57.57-6.52,1.17-13.03,1.73-19.55.36-4.15.55-8.32,1-12.46.54-5.03,1.03-10.06,1.28-15.11.08-1.58-.47-2.05-2.04-2.05-20.82.04-41.64.05-62.46,0-1.76,0-2.13.62-2.1,2.23.09,4.94-.12,9.89.09,14.83.1,2.4-.73,2.81-2.91,2.8-15.58-.09-31.16-.05-46.74-.03-.86,0-1.81-.35-2.56.41.59,7.08,1.19,14.17,1.78,21.25,1.1,13.27,2.23,26.55,3.28,39.83.14,1.81.64,2.44,2.64,2.43,14.38-.09,28.75-.01,43.13.01,1.16.42,1.36,1.27,1.35,2.43-.05,9.92-.03,19.84-.04,29.76-.22.03-.46.13-.66.07-7.24-2.05-14.47-4.15-21.73-6.14-1.17-.32-1.3-.97-1.32-1.94-.13-4.34-.37-8.67-.42-13.01-.02-1.46-.45-1.87-1.91-1.85-5.98.08-11.97.09-17.96,0-1.62-.03-2.01.45-1.87,2.01.85,9.53,1.64,19.07,2.39,28.61.11,1.45.8,1.95,2.13,2.32,13.8,3.85,27.58,7.77,41.36,11.67Z"/>
      <path class="cls-5" d="M75.4,222.68c0-.13-.02-.26-.07-.38,1.98-.05,3.99-.42,5.92.38h-5.85Z"/>
      <path class="cls-6" d="M90.32,222.31c-.04.12-.07.25-.08.38h-5.4c1.78-.82,3.64-.44,5.48-.38Z"/>
      <path class="cls-1" d="M109.13,16.7c-2.25,3.43-4.5,6.86-6.9,10.51-2.33-3.57-4.55-6.96-6.78-10.37-.82.39-.47,1.07-.47,1.58-.03,3.89-.06,7.79,0,11.68.02,1.16-.31,1.57-1.5,1.53-2.54-.08-5.09-.07-7.64,0-1.07.03-1.4-.31-1.4-1.39.04-9.51.04-19.02,0-28.53,0-1.24.46-1.61,1.58-1.47.15.02.3,0,.45,0,2.77.03,5.89-.73,8.2.32,2.31,1.06,3.2,4.33,4.77,6.59.93,1.34,1.79,2.74,2.8,4.27,2.2-3.35,4.36-6.57,6.42-9.86.64-1.01,1.34-1.4,2.54-1.36,2.39.09,4.79.1,7.19,0,1.33-.06,1.61.43,1.6,1.67-.04,9.43-.05,18.87,0,28.3,0,1.25-.44,1.48-1.54,1.45-2.39-.07-4.8-.11-7.19.01-1.37.07-1.78-.3-1.75-1.71.1-4.38.04-8.77.04-13.16-.14-.02-.28-.04-.42-.06Z"/>
      <path class="cls-1" d="M15.59,14.51c.04-4.18.16-8.37.06-12.55-.04-1.64.53-2.02,2.03-1.93,2.01.12,4.04.11,6.05,0,1.34-.07,1.83.26,1.76,1.7-.13,2.61.02,5.23-.05,7.85-.03,1.09.32,1.4,1.38,1.37,2.54-.07,5.09-.1,7.63,0,1.3.06,1.43-.52,1.41-1.58-.05-3.06-.02-6.13-.02-9.2,2.84-.04,5.69-.06,8.53-.14.96-.03,1.29.28,1.29,1.27-.03,9.59-.03,19.18,0,28.77,0,.99-.35,1.31-1.3,1.3-2.4-.04-4.8-.06-7.19,0-1.14.03-1.36-.46-1.34-1.47.06-2.4-.03-4.8.04-7.19.03-1.11-.18-1.61-1.44-1.56-2.54.1-5.09.08-7.64,0-1.11-.03-1.39.34-1.37,1.4.07,2.47-.03,4.95.05,7.42.03,1.09-.33,1.42-1.4,1.39-2.25-.06-4.5-.1-6.74.02-1.49.08-1.69-.57-1.69-1.85.03-5.01-.04-10.03-.08-15.05Z"/>
      <path class="cls-1" d="M65.16.06c4.42,0,8.83.05,13.24-.03,1.35-.03,1.85.31,1.78,1.73-.12,2.46-.14,4.94,0,7.4.09,1.58-.54,1.88-1.93,1.8-1.94-.1-3.9.12-5.83-.07-1.79-.17-2.06.54-2.03,2.13.09,5.61,0,11.22.07,16.84.02,1.33-.24,1.85-1.7,1.77-2.39-.13-4.79-.1-7.18,0-1.26.05-1.64-.32-1.62-1.61.07-5.69-.05-11.38.08-17.06.04-1.75-.52-2.09-2.15-2.07-2.51.04-5.88,1.13-7.29-.42-1.24-1.36-.36-4.68-.37-7.14-.02-3.27,0-3.27,3.25-3.27,3.89,0,7.78,0,11.67,0Z"/>
      <path class="cls-1" d="M125.26.57c3.4-.79,6.85-.05,10.26-.39.42,2.98.12,5.97.21,8.95.12,4.1-.21,8.2.18,12.29,4.08.58,8.17.1,12.26.25.37.01.75.05,1.12,0,1.28-.18,1.67.35,1.61,1.62-.09,2.31-.08,4.64,0,6.95.04,1.11-.36,1.38-1.41,1.38-7.63-.04-15.26-.06-22.89.01-1.69.02-1.28-1.02-1.28-1.9-.03-9.72-.04-19.45-.05-29.17Z"/>
      <path class="cls-3" d="M54.86,102.18c.73-.59,1.58-.28,2.37-.29,24.57-.12,49.15-.24,73.72-.26,2.03,0,2.7-.61,2.83-2.56.37-5.53.87-11.05,1.38-16.56.14-1.45-.04-2.12-1.8-2.12-33.64.06-67.28.05-100.91.06-.37,0-.74.08-1.11.12.75-.76,1.7-.41,2.56-.41,15.58-.02,31.16-.06,46.74.03,2.18.01,3.02-.4,2.91-2.8-.21-4.93,0-9.88-.09-14.83-.03-1.6.34-2.23,2.1-2.23,20.82.06,41.64.05,62.46,0,1.57,0,2.12.47,2.04,2.05-.25,5.05-.73,10.08-1.28,15.11-.45,4.14-.65,8.31-1,12.46-.56,6.52-1.16,13.03-1.73,19.55-.34,3.85-.63,7.71-.96,11.57-.58,6.67-1.19,13.33-1.74,20-.35,4.23-.6,8.46-.96,12.69-.54,6.22-1.17,12.43-1.71,18.65-.37,4.23-.65,8.46-.98,12.69-.45,5.79-.91,11.57-1.36,17.35-.09,1.14-.95,1.48-1.81,1.72-15.64,4.39-31.29,8.76-46.93,13.14-1.36.38-2.76.69-4.07,1.22-1.83.75-2.09.02-2.07-1.65.08-6.29.03-12.58.03-18.87,11.63-3.32,23.27-6.64,34.91-9.96,2.16-.61,4.3-1.28,6.48-1.8,1.24-.3,1.63-.95,1.73-2.17,1.35-16.79,2.75-33.57,4.15-50.35.24-2.83.42-5.68.82-8.49.3-2.09-.17-2.81-2.48-2.79-14.38.11-28.76.06-43.15.05-.82,0-1.64-.06-2.46-.1,0-5.75,0-11.5,0-17.25q0-2.96-2.86-2.96c-8.59,0-17.18,0-25.77,0Z"/>
      <path class="cls-2" d="M82.16,144.09c8.14-.03,16.28-.02,24.43-.1,1.41-.01,1.5.5,1.38,1.72-.73,7.65-1.37,15.32-1.99,22.98-.09,1.1-.37,1.71-1.56,2.02-6.99,1.8-13.96,3.7-20.94,5.56,0-9.92-.01-19.84.04-29.76,0-1.16-.19-2.01-1.35-2.43Z"/>
      <path class="cls-4" d="M54.86,102.18c8.59,0,17.18,0,25.77,0q2.85,0,2.86,2.96c0,5.75,0,11.5,0,17.25-8.53.03-17.07.07-25.6.1-.64,0-1.36.16-1.45-.89-.53-6.47-1.46-12.92-1.57-19.43Z"/>
    </g>
  </g>
</svg>