<?xml version="1.0" encoding="UTF-8"?>
<svg id="Ebene_2" data-name="Ebene 2" xmlns="http://www.w3.org/2000/svg" viewBox="0 0 216.99 216.99">
  <defs>
    <style>
      .cls-1 {
        fill: #000;
      }

      .cls-1, .cls-2 {
        stroke-width: 0px;
      }

      .cls-2 {
        fill: #fede00;
      }
    </style>
  </defs>
  <g id="Ebene_1-2" data-name="Ebene 1">
    <g>
      <path class="cls-2" d="M.04,216.94C.04,145.27.05,73.61,0,1.95,0,.36.36,0,1.95,0c71.66.05,143.33.04,214.99.04,0,71.44-.01,142.88.05,214.32,0,2.13-.5,2.63-2.63,2.63-71.44-.06-142.88-.05-214.32-.05ZM167.42,98.55c-2.76-.25-4.94,0-7.11.21-17.06,1.58-27.84,16.26-24.48,33.07,1.76,8.81,6.95,14.89,14.36,19.43,5.37,3.29,11.27,5.46,16.97,8.05,3.21,1.45,6.48,2.81,9.18,5.15,4.98,4.32,4.39,11.64-1.21,15.1-2.27,1.4-4.78,2.03-7.42,2.22-8.91.64-15.8-2.87-20.6-10.33-1.12-1.74-1.88-1.78-3.53-.76-4.31,2.68-8.73,5.17-13.15,7.66-1.05.59-1.15,1.05-.56,2.08,2.87,5.06,6.6,9.34,11.48,12.5,11.12,7.2,23.3,8.57,35.95,5.75,19.59-4.38,25.99-20.39,21.38-36.99-2.11-7.59-7.65-12.47-14.15-16.41-5.86-3.56-12.27-5.96-18.49-8.78-2.76-1.25-5.53-2.5-7.79-4.6-2.84-2.63-3.44-5.95-2.45-9.5.96-3.48,3.56-5.29,7.03-5.92,6.01-1.08,10.79,1.09,14.28,6.74.97,1.57,1.59,1.56,3,.61,4.14-2.8,8.36-5.5,12.63-8.11,1.22-.75,1.2-1.28.52-2.4-6.05-9.87-14.95-14.61-25.83-14.77ZM118.19,136.44c0-11.51-.06-23.01.05-34.52.02-2.04-.63-2.4-2.47-2.36-5.22.12-10.45.12-15.67,0-1.8-.04-2.35.33-2.34,2.27.08,21.88.06,43.77.04,65.65,0,1.9-.11,3.81-.36,5.7-.69,5.29-3.59,8.03-8.88,8.52-4.73.44-8.6-1.12-11.4-5.04-.94-1.32-1.84-2.67-2.63-4.08-.55-.98-.97-1.26-2.06-.58-4.66,2.91-9.37,5.74-14.11,8.53-1.03.61-1.11,1.13-.57,2.13,3.13,5.8,7.36,10.52,13.3,13.49,8.87,4.44,18.19,4.83,27.61,2.31,9.33-2.49,15.31-8.59,17.98-17.9,1.12-3.9,1.5-7.89,1.5-11.92,0-10.73,0-21.46,0-32.19Z"/>
      <path class="cls-1" d="M167.42,98.55c10.89.16,19.78,4.9,25.83,14.77.69,1.12.71,1.65-.52,2.4-4.27,2.61-8.49,5.31-12.63,8.11-1.41.96-2.03.97-3-.61-3.49-5.65-8.27-7.82-14.28-6.74-3.46.62-6.06,2.44-7.03,5.92-.99,3.56-.38,6.87,2.45,9.5,2.26,2.09,5.03,3.34,7.79,4.6,6.21,2.82,12.62,5.22,18.49,8.78,6.5,3.94,12.04,8.81,14.15,16.41,4.61,16.6-1.79,32.61-21.38,36.99-12.64,2.83-24.83,1.46-35.95-5.75-4.88-3.16-8.61-7.45-11.48-12.5-.58-1.03-.48-1.49.56-2.08,4.42-2.49,8.84-4.98,13.15-7.66,1.65-1.02,2.41-.98,3.53.76,4.79,7.46,11.68,10.97,20.6,10.33,2.64-.19,5.15-.83,7.42-2.22,5.6-3.46,6.19-10.78,1.21-15.1-2.7-2.34-5.97-3.7-9.18-5.15-5.7-2.59-11.6-4.76-16.97-8.05-7.41-4.54-12.6-10.62-14.36-19.43-3.36-16.81,7.42-31.5,24.48-33.07,2.18-.2,4.35-.46,7.11-.21Z"/>
      <path class="cls-1" d="M118.19,136.44c0,10.73,0,21.46,0,32.19,0,4.04-.38,8.02-1.5,11.92-2.67,9.31-8.65,15.41-17.98,17.9-9.42,2.52-18.74,2.12-27.61-2.31-5.94-2.97-10.18-7.69-13.3-13.49-.54-1-.47-1.52.57-2.13,4.74-2.79,9.45-5.63,14.11-8.53,1.09-.68,1.51-.4,2.06.58.79,1.41,1.69,2.77,2.63,4.08,2.8,3.92,6.67,5.48,11.4,5.04,5.29-.49,8.19-3.23,8.88-8.52.25-1.88.35-3.8.36-5.7.02-21.88.04-43.77-.04-65.65,0-1.93.54-2.31,2.34-2.27,5.22.13,10.45.12,15.67,0,1.84-.04,2.49.32,2.47,2.36-.11,11.51-.05,23.01-.06,34.52Z"/>
    </g>
  </g>
</svg>