<?xml version="1.0" encoding="UTF-8"?>
<svg id="Ebene_2" data-name="Ebene 2" xmlns="http://www.w3.org/2000/svg" viewBox="0 0 229.68 222.03">
  <defs>
    <style>
      .cls-1 {
        fill: #470137;
      }

      .cls-1, .cls-2 {
        stroke-width: 0px;
      }

      .cls-2 {
        fill: #fe61f5;
      }
    </style>
  </defs>
  <g id="Ebene_1-2" data-name="Ebene 1">
    <g>
      <path class="cls-1" d="M114.6,222.01c-24.64,0-49.27.03-73.91,0-19.95-.03-36.02-13.19-39.98-32.71C.19,186.72,0,184.1,0,181.45c.01-46.96-.02-93.92.02-140.89C.04,17.64,17.71.04,40.69.02c49.43-.03,98.87-.03,148.3,0,22.97.01,40.64,17.61,40.66,40.54.05,46.96.05,93.92,0,140.89-.02,22.93-17.69,40.51-40.66,40.55-24.8.04-49.59,0-74.39,0ZM76.6,123.99c.48.8.73,1.2.96,1.61,6.64,12.15,13.31,24.29,19.86,36.49,1.01,1.87,2.21,2.6,4.32,2.55,5.34-.13,10.68-.02,16.02-.06.89,0,2.11.51,2.62-.53.41-.84-.49-1.61-.92-2.33-9.48-16.13-18.96-32.25-28.52-48.33-.89-1.5-.89-2.56-.01-4.06,8.91-15.17,17.74-30.38,26.59-45.59,1.32-2.27,1.21-2.47-1.38-2.48-4.86-.01-9.73.1-14.58-.05-2.15-.07-3.31.74-4.26,2.62-5.9,11.64-11.91,23.22-17.88,34.83-.39.75-.81,1.48-1.38,2.52-.59-1.08-1.05-1.88-1.48-2.7-5.96-11.52-11.96-23.02-17.84-34.58-1.01-1.98-2.24-2.74-4.47-2.68-5.34.15-10.68.04-16.02.05-2.7,0-2.72.02-1.4,2.34,8.51,15.03,16.93,30.12,25.64,45.03,1.81,3.09,1.8,5.18-.08,8.24-9.12,14.86-17.93,29.9-26.84,44.89-.43.73-1.35,1.5-.93,2.33.51,1,1.72.49,2.61.5,4.86.05,9.73-.09,14.58.07,2.3.08,3.65-.68,4.69-2.76,2.75-5.47,5.7-10.85,8.57-16.26,3.76-7.08,7.53-14.16,11.5-21.64ZM193.27,104.73c0-14.83-.03-29.65.04-44.48.01-2.06-.33-2.99-2.71-2.88-4.69.21-9.41.16-14.1.01-1.95-.06-2.41.59-2.39,2.45.09,9.48-.02,18.97.09,28.45.02,1.97-.5,2.36-2.39,2.06-18.69-2.93-37.47,9.43-42.19,27.68-1.62,6.27-1.62,12.59-.89,18.98,1.63,14.35,10.61,24.99,24.71,28.18,13.9,3.14,27.36.78,40.37-4.66,1.47-.61,1.49-1.61,1.15-2.91-.91-3.54-1.76-7.06-1.73-10.8.11-14.03.05-28.06.05-42.09Z"/>
      <path class="cls-2" d="M76.6,123.99c-3.98,7.48-7.74,14.56-11.5,21.64-2.87,5.41-5.82,10.79-8.57,16.26-1.04,2.08-2.39,2.83-4.69,2.76-4.86-.16-9.72-.02-14.58-.07-.89,0-2.1.5-2.61-.5-.42-.83.5-1.6.93-2.33,8.91-14.99,17.72-30.03,26.84-44.89,1.88-3.06,1.88-5.15.08-8.24-8.72-14.91-17.13-30-25.64-45.03-1.31-2.32-1.3-2.34,1.4-2.34,5.34,0,10.68.1,16.02-.05,2.23-.06,3.47.7,4.47,2.68,5.88,11.56,11.88,23.06,17.84,34.58.43.82.89,1.63,1.48,2.7.57-1.04,1-1.77,1.38-2.52,5.98-11.6,11.98-23.19,17.88-34.83.95-1.88,2.11-2.68,4.26-2.62,4.86.15,9.72.04,14.58.05,2.58,0,2.7.21,1.38,2.48-8.85,15.21-17.68,30.42-26.59,45.59-.88,1.5-.88,2.55.01,4.06,9.56,16.08,19.04,32.21,28.52,48.33.43.73,1.33,1.49.92,2.33-.51,1.04-1.72.52-2.62.53-5.34.04-10.68-.06-16.02.06-2.11.05-3.32-.68-4.32-2.55-6.56-12.2-13.23-24.33-19.86-36.49-.23-.42-.48-.81-.96-1.61Z"/>
      <path class="cls-2" d="M193.27,104.73c0,14.03.07,28.06-.05,42.09-.03,3.74.81,7.26,1.73,10.8.34,1.31.32,2.3-1.15,2.91-13.02,5.43-26.47,7.8-40.37,4.66-14.1-3.19-23.09-13.83-24.71-28.18-.72-6.38-.73-12.71.89-18.98,4.73-18.25,23.5-30.61,42.19-27.68,1.88.3,2.41-.1,2.39-2.06-.1-9.48,0-18.97-.09-28.45-.02-1.86.44-2.51,2.39-2.45,4.7.14,9.41.19,14.1-.01,2.38-.1,2.72.83,2.71,2.88-.07,14.83-.04,29.65-.04,44.48ZM174.16,128.72c0-7.01-.12-14.02.07-21.02.07-2.5-1.03-3.43-3.14-3.85-7.78-1.53-14.38.51-19.42,6.72-5.61,6.92-7.2,14.92-5.71,23.58,1.77,10.29,10.64,21.38,25.46,18.53,1.89-.36,2.85-.95,2.8-3.19-.17-6.92-.06-13.85-.06-20.78Z"/>
      <path class="cls-1" d="M174.16,128.72c0,6.93-.11,13.86.06,20.78.05,2.24-.9,2.83-2.8,3.19-14.83,2.84-23.69-8.25-25.46-18.53-1.49-8.66.1-16.66,5.71-23.58,5.04-6.22,11.64-8.25,19.42-6.72,2.12.42,3.21,1.35,3.14,3.85-.19,7-.07,14.01-.07,21.02Z"/>
    </g>
  </g>
</svg>