<?xml version="1.0" encoding="UTF-8"?>
<svg id="Ebene_2" data-name="Ebene 2" xmlns="http://www.w3.org/2000/svg" viewBox="0 0 165.98 221.58">
  <defs>
    <style>
      .cls-1 {
        fill: #222123;
      }

      .cls-1, .cls-2, .cls-3, .cls-4, .cls-5 {
        stroke-width: 0px;
      }

      .cls-2 {
        fill: #95c0e2;
      }

      .cls-3 {
        fill: #0095db;
      }

      .cls-4 {
        fill: #70aad9;
      }

      .cls-5 {
        fill: #006bbf;
      }
    </style>
  </defs>
  <g id="Ebene_1-2" data-name="Ebene 1">
    <g>
      <path class="cls-5" d="M74.47,221.2c-18.31-1.41-35.32-6.83-51.01-16.41-3.24-1.98-6.28-4.23-9.4-6.37-.82-.56-1.12-1.18-1.2-2.18-1.71-20.07-3.49-40.14-5.22-60.21-1.56-18.14-3.06-36.29-4.62-54.44C2.06,70.49,1.07,59.39.03,48.29c-.15-1.56.19-2.03,1.82-2.03,54.09.04,108.17.04,162.26,0,1.59,0,1.99.41,1.85,2-1.82,20.51-3.56,41.03-5.34,61.54-1.72,19.77-3.46,39.54-5.19,59.31-.78,8.96-1.57,17.92-2.28,26.89-.09,1.15-.44,1.84-1.37,2.54-14.95,11.2-31.65,18.36-50.05,21.46-3.65.62-7.34,1.2-11.07,1.21-1.82-.07-3.66-.4-5.42.37h-5.36c-1.76-.72-3.59-.43-5.4-.38ZM82.11,175.64c-7.14-1.96-14.28-3.93-21.43-5.85-1.16-.31-.99-1.12-1.02-1.91-.17-4.31-.36-8.61-.45-12.92-.03-1.3-.37-1.81-1.78-1.79-6.09.07-12.19.07-18.28,0-1.38-.02-1.81.34-1.69,1.74.85,9.47,1.68,18.94,2.43,28.42.12,1.58.7,2.2,2.26,2.63,13.64,3.79,27.24,7.69,40.85,11.56,0,6.32.03,12.65-.02,18.97-.01,1.55.21,2.08,2,1.57,16.86-4.84,33.74-9.6,50.64-14.28,1.53-.43,2.13-1.28,2.24-2.6.5-5.74.94-11.49,1.39-17.24.33-4.2.6-8.41.95-12.61.55-6.55,1.16-13.09,1.73-19.64.34-3.9.62-7.81.96-11.71.56-6.4,1.16-12.8,1.71-19.2.35-4.12.61-8.26.95-12.38.55-6.55,1.16-13.09,1.73-19.64.35-3.98.67-7.95,1-11.93.41-4.86.8-9.72,1.24-14.57.14-1.54-.58-1.85-1.96-1.85-20.9.03-41.81.04-62.71,0-1.5,0-1.9.52-1.88,1.95.07,5.06-.07,10.12.07,15.17.06,2.07-.57,2.61-2.61,2.6-15.55-.08-31.1-.05-46.64-.03-.85,0-1.8-.37-2.53.42.55,6.52,1.17,13.03,1.61,19.56.11,1.63.72,1.87,2.16,1.86,12.2-.05,24.4-.03,36.61-.03.68,0,1.36.07,2.52.13-.93.49-1.38.73-1.83.95-11.95,5.98-23.89,11.97-35.86,17.9-1.2.59-1.82,1.18-1.67,2.66.62,6.14,1.18,12.29,1.62,18.44.11,1.61.71,1.91,2.17,1.87,3.94-.1,7.89-.04,11.83-.03,10.86.03,21.72.07,32.58.1,0,9.84.01,19.69-.02,29.53,0,.79.45,1.87-.86,2.19Z"/>
      <path class="cls-2" d="M74.47,221.2c1.81-.05,3.64-.34,5.4.38h-5.36c0-.13-.01-.25-.04-.38Z"/>
      <path class="cls-4" d="M85.22,221.58c1.76-.78,3.6-.44,5.42-.37-.03.12-.05.25-.06.37h-5.36Z"/>
      <path class="cls-1" d="M83.29.04c4.31,0,8.62.04,12.93-.03,1.21-.02,1.77.24,1.66,1.58-.18,2.21.88,5.04-.4,6.48-1.21,1.37-4.08.37-6.21.41-4.31.07-8.62.1-12.93-.02-1.58-.04-1.78.58-1.81,1.93-.04,1.46.4,1.86,1.86,1.84,5.8-.08,11.59.02,17.39-.07,1.57-.02,2.18.24,2.13,2.01-.14,4.98-.1,9.96-.02,14.94.03,1.47-.25,2.05-1.9,2.03-8.55-.09-17.09-.07-25.64,0-1.38.01-1.84-.36-1.71-1.74.19-2.06-.83-4.75.38-6.02,1.23-1.29,3.94-.36,5.99-.39,4.31-.06,8.62-.11,12.93.02,1.69.05,1.64-.77,1.72-2,.09-1.45-.46-1.72-1.77-1.7-5.8.06-11.59-.02-17.39.06-1.41.02-1.9-.31-1.88-1.81.09-5.28.09-10.55,0-15.83-.02-1.38.36-1.76,1.73-1.73,4.31.09,8.62.03,12.93.03Z"/>
      <path class="cls-1" d="M116.7.06c4.31,0,8.62.05,12.94-.03,1.27-.02,1.67.36,1.6,1.62-.1,1.7-.1,3.42.01,5.13.09,1.37-.34,1.78-1.73,1.76-5.87-.08-11.75,0-17.62-.06-1.43-.02-2.1.2-2.1,1.89,0,1.7.66,1.88,2.09,1.86,5.87-.07,11.75.01,17.62-.06,1.32-.02,1.78.25,1.75,1.69-.1,5.2-.1,10.41,0,15.61.03,1.47-.51,1.67-1.79,1.66-8.55-.05-17.1-.06-25.65,0-1.45.01-2.01-.39-1.84-1.85.23-2.04-.89-4.7.49-5.96,1.08-.98,3.67-.33,5.59-.34,4.39-.02,8.78-.1,13.16.04,1.68.05,1.68-.73,1.74-1.98.06-1.38-.37-1.75-1.74-1.73-5.8.08-11.6-.02-17.4.07-1.47.02-1.88-.4-1.85-1.86.08-5.2.1-10.41,0-15.61-.04-1.66.56-1.94,2.04-1.91,4.24.09,8.47.03,12.71.03v.02Z"/>
      <path class="cls-1" d="M34.77,15.53c0-4.54.04-9.07-.03-13.61-.02-1.34.18-1.93,1.76-1.91,8.55.08,17.1.06,25.65-.01,1.49-.01,1.93.43,1.83,1.87-.14,2,.63,4.6-.37,5.84-1.05,1.31-3.76.39-5.75.42-4.46.07-8.92.08-13.38-.01-1.48-.03-2.09.27-2.03,1.92.13,3.71.12,7.44,0,11.15-.05,1.56.53,1.82,1.91,1.81,5.87-.07,11.75.02,17.62-.06,1.54-.02,2.15.37,1.99,1.96-.2,1.98.8,4.57-.38,5.8-1.2,1.25-3.8.37-5.78.38-6.99.05-13.98-.05-20.97.07-1.83.03-2.18-.56-2.14-2.23.11-4.46.04-8.92.04-13.38h.01Z"/>
      <path class="cls-3" d="M82.99,197.53c13.62-3.87,27.23-7.78,40.88-11.57,1.59-.44,2.11-1.11,2.24-2.66.76-9.63,1.61-19.25,2.42-28.88.84-9.85,1.62-19.7,2.55-29.54.17-1.85.01-2.55-2.16-2.53-12.03.12-24.07.06-36.21.06.23-.88.99-.95,1.52-1.22,12.29-6.28,24.57-12.57,36.9-18.77,1.37-.69,1.92-1.48,2.03-3,.43-5.85.98-11.7,1.53-17.54.1-1.03-.09-1.6-1.25-1.44-.22.03-.45,0-.67,0-33.54,0-67.09.01-100.63.02-.3,0-.59.03-.89.04.74-.78,1.69-.42,2.53-.42,15.55-.02,31.1-.06,46.64.03,2.04.01,2.67-.53,2.61-2.6-.15-5.05,0-10.12-.07-15.17-.02-1.42.39-1.95,1.88-1.95,20.9.04,41.81.04,62.71,0,1.39,0,2.1.31,1.96,1.85-.44,4.85-.83,9.71-1.24,14.57-.33,3.98-.66,7.96-1,11.93-.57,6.55-1.17,13.09-1.73,19.64-.35,4.13-.6,8.26-.95,12.38-.55,6.4-1.15,12.8-1.71,19.2-.34,3.9-.62,7.81-.96,11.71-.57,6.55-1.18,13.09-1.73,19.64-.35,4.2-.63,8.41-.95,12.61-.45,5.75-.88,11.5-1.39,17.24-.12,1.32-.71,2.17-2.24,2.6-16.9,4.69-33.78,9.45-50.64,14.28-1.79.51-2.01-.01-2-1.57.05-6.32.02-12.65.02-18.97Z"/>
      <path class="cls-3" d="M82.99,143.92c7.72-.03,15.44-.04,23.16-.12,1.22-.01,1.52.41,1.41,1.55-.72,7.76-1.4,15.52-2.08,23.28-.08.9-.33,1.41-1.35,1.68-6.87,1.8-13.72,3.71-20.58,5.58-.53.14-1.02.18-1.45-.25,1.32-.32.86-1.39.87-2.19.03-9.84.02-19.69.02-29.53Z"/>
    </g>
  </g>
</svg>