<?xml version="1.0" encoding="UTF-8"?>
<svg id="Ebene_2" data-name="Ebene 2" xmlns="http://www.w3.org/2000/svg" viewBox="0 0 269.62 217.47">
  <defs>
    <style>
      .cls-1 {
        fill: #febe3b;
      }

      .cls-1, .cls-2, .cls-3 {
        stroke-width: 0px;
      }

      .cls-2 {
        fill: #393f42;
      }

      .cls-3 {
        fill: #da2626;
      }
    </style>
  </defs>
  <g id="Ebene_1-2" data-name="Ebene 1">
    <g>
      <path class="cls-3" d="M.3,144.71c.02-24.16.05-48.32.07-72.49,54.26-.02,108.52-.05,162.77-.05,35.42,0,70.85.03,106.27.05.07,7.72.21,15.44.2,23.16,0,16.44-.08,32.89-.13,49.33-89.73,0-179.46,0-269.19,0Z"/>
      <path class="cls-1" d="M.3,144.71c89.73,0,179.46,0,269.19,0,.04,19.33.2,38.66.08,57.98-.05,7.8-6.94,14.31-14.76,14.61-1.12.04-2.24.01-3.37.01-77.7,0-155.39-.13-233.09.15-10.7.04-18.72-7-18.34-18.52.6-18.06.24-36.16.29-54.24Z"/>
      <path class="cls-2" d="M269.42,72.23c-35.42-.02-70.85-.05-106.27-.05-54.26,0-108.52.03-162.77.05-.07-14.46-.15-28.92-.21-43.38-.02-4.49-.06-8.98.01-13.47C.31,6.92,6.53.49,14.93.06c1.24-.06,2.49-.05,3.74-.05,77.46,0,154.92-.03,232.38.09,3.61,0,7.51.68,10.76,2.16,4.84,2.2,7.65,6.74,7.7,12,.18,19.32-.03,38.65-.1,57.97Z"/>
    </g>
  </g>
</svg>