<?xml version="1.0" encoding="UTF-8"?>
<svg id="Ebene_2" data-name="Ebene 2" xmlns="http://www.w3.org/2000/svg" viewBox="0 0 268.61 216.32">
  <defs>
    <style>
      .cls-1 {
        fill: #fe4b55;
      }

      .cls-1, .cls-2, .cls-3 {
        stroke-width: 0px;
      }

      .cls-2 {
        fill: #fff;
      }

      .cls-3 {
        fill: #41479a;
      }
    </style>
  </defs>
  <g id="Ebene_1-2" data-name="Ebene 1">
    <g>
      <rect class="cls-2" x="87.13" y=".12" width="93.87" height="216.09"/>
      <g>
        <path class="cls-3" d="M89.36,212.75c0,3.95.31,3.42-3.3,3.42-21.07.02-42.15-.34-63.21.14-.32,0-.63,0-.94,0-12.07-.18-19.43-9.13-21.36-19.32-.11-.59-.03-1.24-.55-1.69V21.04c1.19-3.69,1.87-7.53,4.07-10.9C7.99,4.12,13.08.2,20.5.19c22.21-.05,44.42,0,66.63-.07,1.95-.01,2.31.72,2.26,2.44-.1,3.84-.03,7.69-.03,11.54v198.65Z"/>
        <path class="cls-1" d="M268.61,190.7c0,8.22-2.47,15.48-8.59,21.02-3,2.72-6.79,4.44-11.1,4.44-22.64,0-45.28,0-67.92.05-1.7.01-2.03-.69-2.01-2.19.07-4.46.03-8.92.03-13.38V3.62c0-3.46,0-3.47,3.56-3.47,20.98,0,41.97.4,62.94-.14,12.69-.33,20.67,8.94,22.55,19.41.37,2.07.53,4.15.53,6.26-.01,55-.02,110.01.01,165.02Z"/>
      </g>
    </g>
  </g>
</svg>