<?xml version="1.0" encoding="UTF-8"?>
<svg id="Ebene_2" data-name="Ebene 2" xmlns="http://www.w3.org/2000/svg" viewBox="0 0 215.01 215.01">
  <defs>
    <style>
      .cls-1 {
        fill: #000;
      }

      .cls-1, .cls-2 {
        stroke-width: 0px;
      }

      .cls-2 {
        fill: #5a5a5a;
      }
    </style>
  </defs>
  <g id="Ebene_1-2" data-name="Ebene 1">
    <g>
      <path class="cls-1" d="M188.96,215.01H25.19c-.26-.6-.84-.37-1.28-.47-11.62-2.65-19.28-9.58-22.86-20.99-.39-1.23-.26-2.61-1.06-3.72V27.31c.6-.64.51-1.4.36-2.16C1.77,11.41,14.54.06,28.95.04c52.34-.06,104.68-.06,157.02,0,15.96.02,28.97,13.03,28.99,29.01.06,52.27.05,104.54,0,156.81-.01,13.23-8.89,24.63-21.65,28.12-1.44.39-2.91.68-4.37,1.02ZM119.62,138.28c3.58,3.79,4.42,8.17,4.38,12.83-.04,5.67-.09,11.33-.07,17,0,2.71,1.53,4.04,4.17,3.6,1.36-.22,2.67-.77,3.97-1.27,38.22-14.71,54.1-59.29,33.58-94.27-17.43-29.72-54.71-41.18-86.8-26.7-42.69,19.27-51.87,76.05-17.4,107.73,6.98,6.42,14.94,11.22,23.95,14.23,3.4,1.13,5.34-.25,5.35-3.76,0-2.52-.02-5.04-.03-7.56-.01-2.65,0-2.62-2.53-2.3-1.18.15-2.37.24-3.56.27-7.76.21-14.16-3.13-16.95-10.43-1.45-3.79-3.88-6.91-7.4-9.11-.99-.62-2.62-1.4-2.01-2.75.57-1.25,2.28-1.03,3.61-.9.21.02.41.09.61.14,4.2.88,6.95,3.62,9.21,7.06,4.28,6.5,11,8.48,18.11,5.44.52-.22,1.14-.32,1.2-1,.31-3.17,1.92-5.73,3.95-8.23-1.45-.22-2.68-.37-3.91-.59-6.98-1.25-13.56-3.41-18.66-8.68-5.14-5.3-6.98-11.96-7.62-19.06-.71-7.81.68-15.04,6.04-21.12.6-.68.58-1.26.32-2.08-1.5-4.77-1.08-9.49.26-14.24.53-1.88,1.5-2.36,3.32-2.14,5.14.61,9.59,2.9,13.85,5.59,1.46.92,2.72,1.2,4.44.77,7.9-1.98,15.99-2.5,23.92-.88,5.08,1.04,9.28.85,13.61-2.22,2.93-2.07,6.53-3.14,10.26-3.28,1.04-.04,1.84.04,2.24,1.28,1.39,4.26,2.12,8.61,1.03,12.99-.6,2.44-.48,4.31,1.38,6.14,1.13,1.11,1.74,2.67,2.42,4.14,2.91,6.26,2.64,12.8,1.55,19.34-1.44,8.67-5.63,15.56-13.68,19.69-4.97,2.55-10.36,3.61-16.13,4.34Z"/>
      <path class="cls-2" d="M0,25.21c.12-.04.24-.06.36-.06.14.76.23,1.52-.36,2.16v-2.1Z"/>
    </g>
  </g>
</svg>