<?xml version="1.0" encoding="UTF-8"?>
<svg id="Ebene_2" data-name="Ebene 2" xmlns="http://www.w3.org/2000/svg" viewBox="0 0 223.25 217.78">
  <defs>
    <style>
      .cls-1 {
        fill: #00a8fe;
      }

      .cls-1, .cls-2 {
        stroke-width: 0px;
      }

      .cls-2 {
        fill: #001834;
      }
    </style>
  </defs>
  <g id="Ebene_1-2" data-name="Ebene 1">
    <g>
      <path class="cls-2" d="M223.25,34.79v148.68c-.16.36-.4.71-.48,1.08-4.16,20.51-19.64,33.21-40.54,33.22-47.08,0-94.16,0-141.24-.02-2.39,0-4.82-.06-7.17-.44C13.79,214.1.02,197.9.02,177.57c-.02-45.77-.02-91.55,0-137.32C.03,17.66,17.09.17,39.68.1c47.95-.15,95.9-.12,143.86-.01,18.18.04,33.29,11.59,38.2,28.73.57,1.97,1.01,3.98,1.51,5.97ZM50.2,104.77c0,15.55.03,31.1-.03,46.64,0,1.86.5,2.57,2.46,2.53,4.94-.12,9.88-.04,14.82-.04,2.93,0,2.94,0,2.94-2.86,0-8.57.09-17.15-.06-25.72-.04-2.22.69-2.52,2.7-2.56,6.16-.1,12.38-.02,18.46-.86,16.59-2.3,29.02-13.7,29.06-32.84.03-14.59-7.88-26.04-21.69-30.86-6.27-2.19-12.75-2.83-19.3-2.78-8.86.07-17.72.47-26.58.55-2.18.02-2.84.57-2.83,2.81.1,15.33.05,30.66.05,45.99ZM130.47,141.97c0,2.25.1,4.51-.03,6.75-.12,1.92.72,2.88,2.43,3.58,5.66,2.31,11.61,3.2,17.63,3.51,7.84.4,15.59-.26,22.61-4.19,7.18-4.02,11.09-10.2,11.41-18.56.32-8.49-3.38-14.72-10.67-18.76-3.86-2.14-7.97-3.8-11.95-5.73-3.32-1.61-6.67-3.16-9.86-4.99-1.47-.84-2.31-2.44-1.88-4.32.43-1.89,1.66-3.1,3.54-3.41,2.06-.35,4.17-.72,6.24-.66,6.36.19,12.54,1.27,18.33,4.13,1.69.83,2.47.29,2.49-1.6.05-4.5-.02-9.01.03-13.51.02-1.8-.69-2.92-2.5-3.22-4.99-.83-9.96-1.98-14.99-2.37-7.23-.56-14.34.25-20.93,3.76-13.98,7.46-16.58,27.78-1.58,37.03,4.72,2.91,10.01,4.87,15,7.35,2.39,1.18,4.93,2.25,6.97,3.9,2.83,2.28,2.05,5.98-1.4,7.18-1.89.65-3.96,1.01-5.96,1.06-7.98.19-15.54-1.57-22.62-5.32-2.04-1.08-2.28-.94-2.31,1.41-.02,2.32,0,4.65,0,6.97Z"/>
      <path class="cls-1" d="M50.2,104.77c0-15.33.05-30.66-.05-45.99-.01-2.24.64-2.79,2.83-2.81,8.86-.08,17.72-.48,26.58-.55,6.55-.05,13.02.59,19.3,2.78,13.82,4.82,21.72,16.27,21.69,30.86-.04,19.14-12.47,30.55-29.06,32.84-6.08.84-12.3.76-18.46.86-2.01.03-2.74.34-2.7,2.56.14,8.57.06,17.15.06,25.72,0,2.85-.01,2.86-2.94,2.86-4.94,0-9.88-.08-14.82.04-1.96.05-2.46-.67-2.46-2.53.06-15.55.03-31.1.03-46.64ZM77.68,73.31l-.06.56c-1.81,0-3.63.03-5.44-.01-1.16-.03-1.66.34-1.65,1.62.05,9.44,0,18.87.08,28.31,0,.52.78,1.46,1.22,1.47,5.87.22,11.77.51,17.46-1.41,4.09-1.38,7.72-3.47,9.66-7.56,4.22-8.87-.05-18.73-9.5-21.33-3.79-1.04-7.85-1.13-11.78-1.65Z"/>
      <path class="cls-1" d="M130.47,141.97c0-2.32-.02-4.65,0-6.97.02-2.35.26-2.49,2.31-1.41,7.08,3.75,14.64,5.51,22.62,5.32,2-.05,4.07-.41,5.96-1.06,3.45-1.2,4.24-4.9,1.4-7.18-2.05-1.65-4.58-2.72-6.97-3.9-4.99-2.47-10.28-4.44-15-7.35-15-9.25-12.41-29.57,1.58-37.03,6.59-3.52,13.69-4.33,20.93-3.76,5.03.39,10,1.54,14.99,2.37,1.81.3,2.52,1.42,2.5,3.22-.05,4.5.02,9.01-.03,13.51-.02,1.89-.8,2.43-2.49,1.6-5.79-2.85-11.97-3.93-18.33-4.13-2.07-.06-4.18.31-6.24.66-1.88.32-3.11,1.53-3.54,3.41-.43,1.88.41,3.47,1.88,4.32,3.19,1.83,6.55,3.38,9.86,4.99,3.98,1.93,8.09,3.59,11.95,5.73,7.3,4.04,11,10.27,10.67,18.76-.32,8.35-4.23,14.53-11.41,18.56-7.01,3.93-14.76,4.59-22.61,4.19-6.03-.31-11.97-1.2-17.63-3.51-1.71-.7-2.55-1.66-2.43-3.58.14-2.24.03-4.5.03-6.75Z"/>
      <path class="cls-2" d="M77.68,73.31c3.93.52,7.99.6,11.78,1.65,9.45,2.6,13.72,12.47,9.5,21.33-1.95,4.09-5.57,6.18-9.66,7.56-5.69,1.92-11.59,1.63-17.46,1.41-.44-.02-1.22-.96-1.22-1.47-.07-9.44-.03-18.87-.08-28.31,0-1.28.49-1.65,1.65-1.62,1.81.04,3.63.01,5.44.01l.06-.56Z"/>
    </g>
  </g>
</svg>